<svg width="155" height="136" viewBox="0 0 155 136" fill="none" xmlns="http://www.w3.org/2000/svg">
<ellipse cx="16" cy="28.9915" rx="11" ry="6" fill="black"/>
<ellipse cx="12.0112" cy="61.1822" rx="10.2134" ry="7.32725" transform="rotate(-18.5103 12.0112 61.1822)" fill="black"/>
<circle cx="36.5" cy="106.492" r="12.5" fill="black"/>
<ellipse cx="92" cy="123.492" rx="11" ry="12.5" fill="black"/>
<ellipse cx="135.883" cy="110.883" rx="9.08567" ry="11.7994" transform="rotate(-37.1467 135.883 110.883)" fill="black"/>
<ellipse cx="146" cy="74.9751" rx="5.28836" ry="8.31651" transform="rotate(-33.4989 146 74.9751)" fill="black"/>
<ellipse cx="108.489" cy="73.3573" rx="11.6715" ry="16.1742" transform="rotate(-45.9528 108.489 73.3573)" fill="black"/>
<ellipse cx="65.5" cy="67.9915" rx="15.5" ry="15" fill="black"/>
<ellipse cx="47" cy="34.9915" rx="13" ry="10" fill="black"/>
<ellipse cx="85.4808" cy="41.5871" rx="17.525" ry="12.5894" transform="rotate(31.4517 85.4808 41.5871)" fill="black"/>
<ellipse cx="36" cy="11.4915" rx="6" ry="3.5" fill="black"/>
<ellipse cx="68" cy="18.196" rx="10.4993" ry="6.63581" transform="rotate(17.3424 68 18.196)" fill="black"/>
<ellipse cx="59" cy="4.92111" rx="6.3483" ry="3.52459" transform="rotate(13.6278 59 4.92111)" fill="black"/>
<ellipse cx="82.5" cy="5.86562" rx="3.91159" ry="2.39031" transform="rotate(20.4356 82.5 5.86562)" fill="black"/>
<ellipse cx="97.412" cy="23.4915" rx="10.4173" ry="6.26968" transform="rotate(20.3424 97.412 23.4915)" fill="black"/>
<ellipse cx="104.877" cy="14.6556" rx="5.96494" ry="3.14451" transform="rotate(24.5124 104.877 14.6556)" fill="black"/>
<ellipse cx="118" cy="46.4915" rx="13.0673" ry="7.77798" transform="rotate(31.8302 118 46.4915)" fill="black"/>
<ellipse cx="124.803" cy="27.9915" rx="5.17154" ry="2.91119" transform="rotate(28.0302 124.803 27.9915)" fill="black"/>
<ellipse cx="141.106" cy="48.4392" rx="8.35733" ry="4.29611" transform="rotate(38.3165 141.106 48.4392)" fill="black"/>
</svg>
