<svg width="4960" height="4320" viewBox="0 0 4960 4320" fill="none" xmlns="http://www.w3.org/2000/svg">
<ellipse cx="512" cy="920.964" rx="352" ry="190.6" fill="black"/>
<ellipse rx="326.589" ry="232.935" transform="matrix(0.948961 -0.315392 0.31957 0.947563 384.359 1943.56)" fill="black"/>
<ellipse cx="1168" cy="3382.88" rx="400" ry="397.084" fill="black"/>
<ellipse cx="2944" cy="3922.92" rx="352" ry="397.084" fill="black"/>
<ellipse rx="289.97" ry="375.833" transform="matrix(0.799211 -0.60105 0.606665 0.794958 4348.26 3522.39)" fill="black"/>
<ellipse rx="168.853" ry="264.781" transform="matrix(0.835748 -0.549113 0.55473 0.832031 4672 2381.71)" fill="black"/>
<ellipse rx="372.085" ry="515.752" transform="matrix(0.697875 -0.71622 0.721305 0.692618 3471.65 2330.32)" fill="black"/>
<ellipse cx="2096" cy="2159.86" rx="496" ry="476.5" fill="black"/>
<ellipse cx="1504" cy="1111.56" rx="416" ry="317.667" fill="black"/>
<ellipse rx="559.69" ry="400.727" transform="matrix(0.854772 0.519004 -0.524561 0.851373 2735.39 1321.08)" fill="black"/>
<ellipse cx="1152" cy="365.047" rx="192" ry="111.183" fill="black"/>
<ellipse rx="335.76" ry="210.936" transform="matrix(0.955157 0.296099 -0.300074 0.953916 2176 578.027)" fill="black"/>
<ellipse rx="203.064" ry="112.01" transform="matrix(0.972239 0.23399 -0.237247 0.971449 1888 156.327)" fill="black"/>
<ellipse rx="125.06" ry="76.0006" transform="matrix(0.937896 0.346916 -0.351403 0.936224 2640 186.331)" fill="black"/>
<ellipse rx="333.06" ry="199.344" transform="matrix(0.938456 0.345399 -0.349872 0.936798 3117.18 746.247)" fill="black"/>
<ellipse rx="190.639" ry="100.017" transform="matrix(0.911012 0.412381 -0.417408 0.908719 3356.07 465.56)" fill="black"/>
<ellipse rx="417.306" ry="247.587" transform="matrix(0.851337 0.524619 -0.530191 0.847878 3776 1476.88)" fill="black"/>
<ellipse rx="165.223" ry="92.6292" transform="matrix(0.884119 0.467261 -0.47262 0.881266 3993.7 889.197)" fill="black"/>
<ellipse rx="266.687" ry="136.859" transform="matrix(0.786798 0.61721 -0.622796 0.782384 4515.41 1538.75)" fill="black"/>
</svg>
