<svg width="1240" height="1080" viewBox="0 0 1240 1080" fill="none" xmlns="http://www.w3.org/2000/svg">
<ellipse cx="128" cy="230.241" rx="88" ry="47.65" fill="black"/>
<ellipse rx="81.6472" ry="58.2339" transform="matrix(0.948961 -0.315392 0.31957 0.947563 96.0898 485.889)" fill="black"/>
<ellipse cx="292" cy="845.721" rx="100" ry="99.2709" fill="black"/>
<ellipse cx="736" cy="980.729" rx="88" ry="99.2709" fill="black"/>
<ellipse rx="72.4926" ry="93.9583" transform="matrix(0.799211 -0.60105 0.606665 0.794958 1087.06 880.598)" fill="black"/>
<ellipse rx="42.2132" ry="66.1952" transform="matrix(0.835748 -0.549113 0.55473 0.832031 1168 595.428)" fill="black"/>
<ellipse rx="93.0211" ry="128.938" transform="matrix(0.697875 -0.71622 0.721305 0.692618 867.913 582.58)" fill="black"/>
<ellipse cx="524" cy="539.966" rx="124" ry="119.125" fill="black"/>
<ellipse cx="376" cy="277.891" rx="104" ry="79.4167" fill="black"/>
<ellipse rx="139.922" ry="100.182" transform="matrix(0.854772 0.519004 -0.524561 0.851373 683.847 330.271)" fill="black"/>
<ellipse cx="288" cy="91.2617" rx="48" ry="27.7959" fill="black"/>
<ellipse rx="83.94" ry="52.7339" transform="matrix(0.955157 0.296099 -0.300074 0.953916 544 144.507)" fill="black"/>
<ellipse rx="50.7659" ry="28.0026" transform="matrix(0.972239 0.23399 -0.237247 0.971449 472 39.0819)" fill="black"/>
<ellipse rx="31.265" ry="19.0001" transform="matrix(0.937896 0.346916 -0.351403 0.936224 660 46.5829)" fill="black"/>
<ellipse rx="83.2649" ry="49.836" transform="matrix(0.938456 0.345399 -0.349872 0.936798 779.296 186.562)" fill="black"/>
<ellipse rx="47.6599" ry="25.0043" transform="matrix(0.911012 0.412381 -0.417408 0.908719 839.018 116.39)" fill="black"/>
<ellipse rx="104.327" ry="61.8967" transform="matrix(0.851337 0.524619 -0.530191 0.847878 944 369.22)" fill="black"/>
<ellipse rx="41.3059" ry="23.1573" transform="matrix(0.884119 0.467261 -0.47262 0.881266 998.425 222.299)" fill="black"/>
<ellipse rx="66.6717" ry="34.2148" transform="matrix(0.786798 0.61721 -0.622796 0.782384 1128.85 384.688)" fill="black"/>
</svg>
