<svg width="620" height="544" viewBox="0 0 620 544" fill="none" xmlns="http://www.w3.org/2000/svg">
<ellipse cx="64" cy="115.965" rx="44" ry="23.9997" fill="black"/>
<ellipse rx="40.8535" ry="29.3087" transform="matrix(0.948267 -0.317473 0.317479 0.948265 48.0449 244.726)" fill="black"/>
<ellipse cx="146" cy="425.961" rx="50" ry="49.9994" fill="black"/>
<ellipse cx="368" cy="493.961" rx="44" ry="49.9994" fill="black"/>
<ellipse rx="36.3425" ry="47.1972" transform="matrix(0.797095 -0.603854 0.603863 0.797088 543.532 443.528)" fill="black"/>
<ellipse rx="21.1534" ry="33.2658" transform="matrix(0.833899 -0.551916 0.551925 0.833894 584 299.897)" fill="black"/>
<ellipse rx="46.6858" ry="64.6963" transform="matrix(0.695255 -0.718764 0.718771 0.695247 433.957 293.426)" fill="black"/>
<ellipse cx="262" cy="271.963" rx="62" ry="59.9993" fill="black"/>
<ellipse cx="188" cy="139.964" rx="52" ry="39.9996" fill="black"/>
<ellipse rx="70.0998" ry="50.3574" transform="matrix(0.853082 0.521776 -0.521784 0.853077 341.923 166.347)" fill="black"/>
<ellipse cx="144" cy="45.9655" rx="24" ry="13.9998" fill="black"/>
<ellipse rx="41.9971" ry="26.543" transform="matrix(0.954541 0.298078 -0.298084 0.95454 272 72.7832)" fill="black"/>
<ellipse rx="25.3932" ry="14.0982" transform="matrix(0.971847 0.235611 -0.235616 0.971846 236 19.6842)" fill="black"/>
<ellipse rx="15.6463" ry="9.56116" transform="matrix(0.937066 0.349151 -0.349158 0.937064 330 23.4622)" fill="black"/>
<ellipse rx="41.669" ry="25.0785" transform="matrix(0.937633 0.347627 -0.347633 0.937631 389.648 93.965)" fill="black"/>
<ellipse rx="23.8597" ry="12.5779" transform="matrix(0.909873 0.414886 -0.414894 0.90987 419.509 58.6218)" fill="black"/>
<ellipse rx="52.2688" ry="31.1117" transform="matrix(0.849618 0.527399 -0.527408 0.849612 472 185.964)" fill="black"/>
<ellipse rx="20.6861" ry="11.6446" transform="matrix(0.882702 0.469933 -0.469941 0.882698 499.213 111.965)" fill="black"/>
<ellipse rx="33.4292" ry="17.1843" transform="matrix(0.784602 0.62 -0.620009 0.784595 564.426 193.755)" fill="black"/>
</svg>
